<svg xmlns="http://www.w3.org/2000/svg" xmlns:xlink="http://www.w3.org/1999/xlink" width="500" zoomAndPan="magnify" viewBox="0 0 375 374.999991" height="500" preserveAspectRatio="xMidYMid meet" version="1.0"><defs><g/><clipPath id="acba86cc95"><path d="M 96 247.3125 L 116 247.3125 L 116 269.8125 L 96 269.8125 Z M 96 247.3125 " clip-rule="nonzero"/></clipPath><clipPath id="7cc783d670"><path d="M 82.140625 251 L 95 251 L 95 267 L 82.140625 267 Z M 82.140625 251 " clip-rule="nonzero"/></clipPath><clipPath id="805a86ed49"><path d="M 117 257 L 117.390625 257 L 117.390625 260 L 117 260 Z M 117 257 " clip-rule="nonzero"/></clipPath><clipPath id="3b17d441e8"><path d="M 257.300781 247.3125 L 292.550781 247.3125 L 292.550781 269.8125 L 257.300781 269.8125 Z M 257.300781 247.3125 " clip-rule="nonzero"/></clipPath><clipPath id="d315fcf243"><path d="M 2 0.3125 L 22 0.3125 L 22 22.8125 L 2 22.8125 Z M 2 0.3125 " clip-rule="nonzero"/></clipPath><clipPath id="55fc7c4483"><path d="M 22 4 L 35.550781 4 L 35.550781 20 L 22 20 Z M 22 4 " clip-rule="nonzero"/></clipPath><clipPath id="69fb3f9b75"><path d="M 0.300781 10 L 1 10 L 1 13 L 0.300781 13 Z M 0.300781 10 " clip-rule="nonzero"/></clipPath><clipPath id="af96788d63"><rect x="0" width="36" y="0" height="23"/></clipPath><clipPath id="c4cc8620b1"><path d="M 40 101.054688 L 224 101.054688 L 224 171 L 40 171 Z M 40 101.054688 " clip-rule="nonzero"/></clipPath><clipPath id="c72f5383e8"><path d="M 113 102 L 334.75 102 L 334.75 195 L 113 195 Z M 113 102 " clip-rule="nonzero"/></clipPath><clipPath id="ea82b82d68"><path d="M 175 165 L 211 165 L 211 200.804688 L 175 200.804688 Z M 175 165 " clip-rule="nonzero"/></clipPath><clipPath id="58264b3ba7"><rect x="0" width="290" y="0" height="31"/></clipPath><clipPath id="1f7c53af94"><rect x="0" width="87" y="0" height="31"/></clipPath></defs><rect x="-37.5" width="450" fill="#ffffff" y="-37.499999" height="449.999989" fill-opacity="1"/><rect x="-37.5" width="450" fill="#ffffff" y="-37.499999" height="449.999989" fill-opacity="1"/><g clip-path="url(#acba86cc95)"><path fill="#fcc04f" d="M 105.988281 247.34375 L 107.648438 255.179688 C 107.722656 255.539062 107.882812 255.867188 108.105469 256.128906 C 108.332031 256.390625 108.605469 256.574219 108.917969 256.664062 L 115.636719 258.597656 L 108.917969 260.535156 C 108.605469 260.621094 108.332031 260.808594 108.105469 261.066406 C 107.882812 261.328125 107.722656 261.65625 107.648438 262.015625 L 105.988281 269.851562 L 104.328125 262.015625 C 104.25 261.65625 104.09375 261.328125 103.867188 261.066406 C 103.644531 260.808594 103.363281 260.621094 103.054688 260.535156 L 96.339844 258.597656 L 103.054688 256.664062 C 103.363281 256.574219 103.644531 256.390625 103.867188 256.128906 C 104.09375 255.867188 104.25 255.539062 104.328125 255.179688 Z M 105.988281 247.34375 " fill-opacity="1" fill-rule="evenodd"/></g><g clip-path="url(#7cc783d670)"><path fill="#fcc04f" d="M 88.523438 251.316406 L 89.621094 256.5 C 89.667969 256.734375 89.773438 256.953125 89.921875 257.125 C 90.070312 257.296875 90.253906 257.417969 90.460938 257.476562 L 94.898438 258.757812 L 90.460938 260.035156 C 90.253906 260.09375 90.070312 260.21875 89.921875 260.390625 C 89.773438 260.5625 89.667969 260.777344 89.621094 261.015625 L 88.523438 266.195312 L 87.425781 261.015625 C 87.375 260.777344 87.269531 260.5625 87.121094 260.390625 C 86.972656 260.21875 86.785156 260.09375 86.585938 260.035156 L 82.144531 258.757812 L 86.585938 257.476562 C 86.785156 257.417969 86.972656 257.296875 87.121094 257.125 C 87.269531 256.953125 87.375 256.734375 87.425781 256.5 Z M 88.523438 251.316406 " fill-opacity="1" fill-rule="evenodd"/></g><path fill="#fcc04f" d="M 86.246094 254.542969 C 86.246094 254.71875 86.210938 254.890625 86.144531 255.050781 C 86.074219 255.214844 85.980469 255.359375 85.855469 255.484375 C 85.730469 255.609375 85.585938 255.707031 85.421875 255.773438 C 85.261719 255.839844 85.089844 255.875 84.914062 255.875 C 84.738281 255.875 84.570312 255.839844 84.40625 255.773438 C 84.242188 255.707031 84.097656 255.609375 83.972656 255.484375 C 83.847656 255.359375 83.753906 255.214844 83.683594 255.050781 C 83.617188 254.890625 83.585938 254.71875 83.585938 254.542969 C 83.585938 254.367188 83.617188 254.199219 83.683594 254.035156 C 83.753906 253.871094 83.847656 253.726562 83.972656 253.601562 C 84.097656 253.476562 84.242188 253.382812 84.40625 253.3125 C 84.570312 253.246094 84.738281 253.214844 84.914062 253.214844 C 85.089844 253.214844 85.261719 253.246094 85.421875 253.3125 C 85.585938 253.382812 85.730469 253.476562 85.855469 253.601562 C 85.980469 253.726562 86.074219 253.871094 86.144531 254.035156 C 86.210938 254.199219 86.246094 254.367188 86.246094 254.542969 Z M 86.246094 254.542969 " fill-opacity="1" fill-rule="nonzero"/><path fill="#fcc04f" d="M 102.460938 263.574219 C 102.460938 263.75 102.425781 263.917969 102.359375 264.082031 C 102.292969 264.246094 102.195312 264.386719 102.070312 264.511719 C 101.945312 264.636719 101.800781 264.734375 101.640625 264.800781 C 101.476562 264.867188 101.304688 264.902344 101.128906 264.902344 C 100.953125 264.902344 100.785156 264.867188 100.621094 264.800781 C 100.457031 264.734375 100.3125 264.636719 100.1875 264.511719 C 100.0625 264.386719 99.96875 264.246094 99.902344 264.082031 C 99.832031 263.917969 99.800781 263.75 99.800781 263.574219 C 99.800781 263.394531 99.832031 263.226562 99.902344 263.0625 C 99.96875 262.898438 100.0625 262.757812 100.1875 262.632812 C 100.3125 262.507812 100.457031 262.410156 100.621094 262.34375 C 100.785156 262.277344 100.953125 262.242188 101.128906 262.242188 C 101.304688 262.242188 101.476562 262.277344 101.640625 262.34375 C 101.800781 262.410156 101.945312 262.507812 102.070312 262.632812 C 102.195312 262.757812 102.292969 262.898438 102.359375 263.0625 C 102.425781 263.226562 102.460938 263.394531 102.460938 263.574219 Z M 102.460938 263.574219 " fill-opacity="1" fill-rule="nonzero"/><g clip-path="url(#805a86ed49)"><path fill="#fcc04f" d="M 118.101562 259.277344 C 117.726562 259.277344 117.421875 258.96875 117.421875 258.59375 C 117.421875 258.214844 117.726562 257.910156 118.117188 257.914062 L 135.386719 257.945312 C 135.773438 257.945312 136.082031 258.253906 136.082031 258.628906 C 136.066406 259.003906 135.773438 259.308594 135.386719 259.308594 Z M 118.101562 259.277344 " fill-opacity="1" fill-rule="evenodd"/></g><g clip-path="url(#3b17d441e8)"><g transform="matrix(1, 0, 0, 1, 257, 247)"><g clip-path="url(#af96788d63)"><g clip-path="url(#d315fcf243)"><path fill="#fcc04f" d="M 11.761719 0.34375 L 10.101562 8.179688 C 10.023438 8.539062 9.867188 8.867188 9.640625 9.128906 C 9.417969 9.390625 9.140625 9.574219 8.828125 9.664062 L 2.113281 11.597656 L 8.828125 13.535156 C 9.140625 13.621094 9.417969 13.808594 9.640625 14.066406 C 9.867188 14.328125 10.023438 14.65625 10.101562 15.015625 L 11.761719 22.851562 L 13.421875 15.015625 C 13.496094 14.65625 13.65625 14.328125 13.878906 14.066406 C 14.105469 13.808594 14.386719 13.621094 14.691406 13.535156 L 21.410156 11.597656 L 14.691406 9.664062 C 14.386719 9.574219 14.105469 9.390625 13.878906 9.128906 C 13.65625 8.867188 13.496094 8.539062 13.421875 8.179688 Z M 11.761719 0.34375 " fill-opacity="1" fill-rule="evenodd"/></g><g clip-path="url(#55fc7c4483)"><path fill="#fcc04f" d="M 29.226562 4.316406 L 28.128906 9.5 C 28.078125 9.734375 27.972656 9.953125 27.828125 10.125 C 27.679688 10.296875 27.496094 10.417969 27.289062 10.476562 L 22.851562 11.757812 L 27.289062 13.035156 C 27.496094 13.09375 27.679688 13.21875 27.828125 13.390625 C 27.972656 13.5625 28.078125 13.777344 28.128906 14.015625 L 29.226562 19.195312 L 30.324219 14.015625 C 30.375 13.777344 30.480469 13.5625 30.628906 13.390625 C 30.773438 13.21875 30.960938 13.09375 31.164062 13.035156 L 35.605469 11.757812 L 31.164062 10.476562 C 30.960938 10.417969 30.773438 10.296875 30.628906 10.125 C 30.480469 9.953125 30.375 9.734375 30.324219 9.5 Z M 29.226562 4.316406 " fill-opacity="1" fill-rule="evenodd"/></g><path fill="#fcc04f" d="M 31.503906 7.542969 C 31.503906 7.71875 31.539062 7.890625 31.605469 8.050781 C 31.671875 8.214844 31.769531 8.359375 31.894531 8.484375 C 32.019531 8.609375 32.164062 8.707031 32.324219 8.773438 C 32.488281 8.839844 32.65625 8.875 32.835938 8.875 C 33.011719 8.875 33.179688 8.839844 33.34375 8.773438 C 33.507812 8.707031 33.652344 8.609375 33.773438 8.484375 C 33.898438 8.359375 33.996094 8.214844 34.0625 8.050781 C 34.132812 7.890625 34.164062 7.71875 34.164062 7.542969 C 34.164062 7.367188 34.132812 7.199219 34.0625 7.035156 C 33.996094 6.871094 33.898438 6.726562 33.773438 6.601562 C 33.652344 6.476562 33.507812 6.382812 33.34375 6.3125 C 33.179688 6.246094 33.011719 6.214844 32.835938 6.214844 C 32.65625 6.214844 32.488281 6.246094 32.324219 6.3125 C 32.164062 6.382812 32.019531 6.476562 31.894531 6.601562 C 31.769531 6.726562 31.671875 6.871094 31.605469 7.035156 C 31.539062 7.199219 31.503906 7.367188 31.503906 7.542969 Z M 31.503906 7.542969 " fill-opacity="1" fill-rule="nonzero"/><path fill="#fcc04f" d="M 15.289062 16.574219 C 15.289062 16.75 15.324219 16.917969 15.390625 17.082031 C 15.457031 17.246094 15.554688 17.386719 15.679688 17.511719 C 15.804688 17.636719 15.949219 17.734375 16.109375 17.800781 C 16.273438 17.867188 16.441406 17.902344 16.621094 17.902344 C 16.796875 17.902344 16.964844 17.867188 17.128906 17.800781 C 17.292969 17.734375 17.433594 17.636719 17.558594 17.511719 C 17.683594 17.386719 17.78125 17.246094 17.847656 17.082031 C 17.917969 16.917969 17.949219 16.75 17.949219 16.574219 C 17.949219 16.394531 17.917969 16.226562 17.847656 16.0625 C 17.78125 15.898438 17.683594 15.757812 17.558594 15.632812 C 17.433594 15.507812 17.292969 15.410156 17.128906 15.34375 C 16.964844 15.277344 16.796875 15.242188 16.621094 15.242188 C 16.441406 15.242188 16.273438 15.277344 16.109375 15.34375 C 15.949219 15.410156 15.804688 15.507812 15.679688 15.632812 C 15.554688 15.757812 15.457031 15.898438 15.390625 16.0625 C 15.324219 16.226562 15.289062 16.394531 15.289062 16.574219 Z M 15.289062 16.574219 " fill-opacity="1" fill-rule="nonzero"/><g clip-path="url(#69fb3f9b75)"><path fill="#fcc04f" d="M -0.351562 12.277344 C 0.0195312 12.277344 0.328125 11.96875 0.328125 11.59375 C 0.328125 11.214844 0.0195312 10.910156 -0.367188 10.914062 L -17.636719 10.945312 C -18.023438 10.945312 -18.332031 11.253906 -18.332031 11.628906 C -18.316406 12.003906 -18.027344 12.308594 -17.636719 12.308594 Z M -0.351562 12.277344 " fill-opacity="1" fill-rule="evenodd"/></g></g></g></g><g clip-path="url(#c4cc8620b1)"><path fill="#002d4d" d="M 65.957031 170.628906 C 62.722656 160.453125 66.558594 149.316406 75.1875 143.207031 C 83.9375 136.980469 95.5625 137.101562 104.191406 143.328125 C 112.824219 149.675781 116.417969 160.691406 113.183594 170.871094 C 113.183594 170.871094 129.242188 154.941406 161.484375 123.089844 C 163.402344 120.816406 165.800781 119.855469 168.796875 120.097656 C 168.796875 120.097656 174.070312 120.097656 184.617188 120.097656 C 187.375 119.976562 189.53125 120.816406 191.089844 122.851562 C 191.089844 122.851562 193.609375 125.484375 198.640625 130.875 C 199.601562 132.789062 202.238281 133.507812 206.550781 133.148438 C 206.550781 133.148438 212.066406 133.148438 223.214844 133.148438 C 223.214844 133.148438 214.105469 123.6875 195.765625 104.886719 C 195.046875 102.253906 192.648438 101.054688 188.8125 101.296875 C 188.8125 101.296875 181.140625 101.535156 165.800781 101.773438 C 162.683594 101.054688 160.046875 102.015625 157.890625 104.648438 C 157.890625 104.648438 152.855469 109.4375 143.027344 119.019531 C 140.269531 121.894531 136.914062 123.210938 132.960938 122.730469 C 132.960938 122.730469 113.300781 122.730469 73.867188 122.96875 C 64.398438 121.535156 58.167969 124.765625 55.171875 132.429688 C 55.171875 132.429688 50.257812 145.003906 40.308594 170.152344 C 57.328125 170.511719 65.957031 170.628906 65.957031 170.628906 Z M 65.957031 170.628906 " fill-opacity="1" fill-rule="evenodd"/></g><g clip-path="url(#c72f5383e8)"><path fill="#fcc04f" d="M 152.496094 154.464844 C 133.320312 173.023438 123.730469 182.367188 123.730469 182.367188 C 121.574219 184.160156 118.457031 184.160156 116.296875 182.484375 C 114.023438 180.6875 113.300781 177.695312 114.621094 175.0625 C 136.675781 152.546875 147.703125 141.292969 147.703125 141.292969 C 159.207031 129.914062 164.960938 124.289062 164.960938 124.289062 C 166.28125 122.96875 168.078125 122.492188 170.355469 122.851562 C 179.585938 122.730469 184.140625 122.730469 184.140625 122.730469 C 186.777344 122.609375 188.695312 123.808594 189.890625 126.203125 C 194.566406 130.992188 196.964844 133.386719 196.964844 133.386719 C 198.882812 135.304688 201.160156 136.023438 203.796875 135.664062 C 221.054688 135.664062 229.683594 135.664062 229.683594 135.664062 C 207.992188 113.511719 197.203125 102.492188 197.203125 102.492188 C 208.949219 102.253906 214.824219 102.132812 214.824219 102.132812 C 217.699219 102.132812 220.214844 102.972656 222.613281 104.886719 C 235.078125 117.222656 241.3125 123.449219 241.3125 123.449219 C 303.398438 123.089844 334.441406 122.96875 334.441406 122.96875 C 325.691406 146.921875 321.378906 158.894531 321.378906 158.894531 C 319.21875 165.839844 314.90625 169.792969 308.191406 170.511719 C 311.1875 160.453125 307.59375 149.792969 299.203125 143.566406 C 290.8125 137.460938 279.425781 137.339844 270.796875 143.207031 C 262.285156 149.074219 258.332031 159.734375 260.96875 169.792969 C 244.667969 154.34375 236.515625 146.679688 236.515625 146.679688 C 228.847656 144.164062 223.933594 146.5625 221.773438 153.867188 C 219.378906 151.351562 215.542969 150.273438 212.1875 151.351562 C 208.710938 152.429688 206.191406 155.300781 205.59375 158.894531 C 202.957031 156.261719 199 155.421875 195.527344 156.621094 C 192.050781 157.9375 189.652344 161.171875 189.292969 164.761719 C 185.9375 161.050781 180.183594 160.570312 176.226562 163.683594 C 172.273438 166.679688 171.3125 172.304688 174.191406 176.496094 C 163.042969 187.753906 157.410156 193.382812 157.410156 193.382812 C 155.132812 195.179688 151.898438 195.179688 149.621094 193.382812 C 147.222656 191.585938 146.503906 188.351562 147.703125 185.71875 C 159.808594 173.742188 165.921875 167.757812 165.921875 167.757812 C 166.519531 167.398438 166.757812 166.679688 166.519531 165.960938 C 166.28125 165.242188 165.800781 164.761719 165.082031 164.761719 C 164.363281 164.644531 163.761719 165.003906 163.402344 165.601562 C 148.0625 180.570312 140.269531 187.992188 140.269531 187.992188 C 137.992188 188.953125 135.238281 188.59375 133.320312 186.914062 C 131.28125 185.238281 130.441406 182.605469 131.160156 180.089844 C 146.863281 164.285156 154.773438 156.5 154.773438 156.5 C 155.132812 156.019531 155.253906 155.421875 155.132812 154.941406 C 155.011719 154.34375 154.535156 153.984375 153.933594 153.867188 C 153.457031 153.867188 152.855469 153.984375 152.496094 154.464844 Z M 152.496094 154.464844 " fill-opacity="1" fill-rule="evenodd"/></g><path fill="#fcc04f" d="M 164.363281 190.988281 C 163.644531 193.742188 164.839844 196.855469 167.359375 198.292969 C 169.875 199.847656 173.113281 199.488281 175.269531 197.453125 C 175.269531 197.453125 178.503906 194.101562 184.859375 187.515625 C 184.859375 187.515625 181.980469 184.640625 176.109375 178.773438 C 168.316406 186.914062 164.363281 190.988281 164.363281 190.988281 Z M 164.363281 190.988281 " fill-opacity="1" fill-rule="evenodd"/><g clip-path="url(#ea82b82d68)"><path fill="#002d4d" d="M 176.226562 173.984375 C 175.269531 171.46875 175.988281 168.476562 178.027344 166.679688 C 180.183594 164.882812 183.179688 164.644531 185.578125 166.078125 C 185.578125 166.078125 193.847656 174.34375 210.386719 190.867188 C 211.707031 193.742188 210.746094 197.214844 208.109375 199.011719 C 205.355469 200.804688 201.757812 200.328125 199.601562 197.933594 C 199.601562 197.933594 191.808594 189.910156 176.226562 173.984375 Z M 176.226562 173.984375 " fill-opacity="1" fill-rule="evenodd"/></g><path fill="#002d4d" d="M 192.410156 168.355469 C 191.449219 165.839844 192.167969 162.847656 194.207031 161.050781 C 196.363281 159.253906 199.359375 159.015625 201.757812 160.453125 C 201.757812 160.453125 210.027344 168.714844 226.570312 185.238281 C 227.886719 188.113281 226.929688 191.585938 224.171875 193.382812 C 221.535156 195.179688 217.9375 194.699219 215.78125 192.304688 C 215.78125 192.304688 207.992188 184.28125 192.410156 168.355469 Z M 192.410156 168.355469 " fill-opacity="1" fill-rule="evenodd"/><path fill="#002d4d" d="M 209.070312 162.726562 C 208.109375 160.09375 208.828125 157.21875 210.988281 155.421875 C 213.023438 153.625 216.019531 153.386719 218.417969 154.824219 C 218.417969 154.824219 226.6875 163.085938 243.230469 179.492188 C 244.546875 182.484375 243.589844 185.957031 240.953125 187.753906 C 238.195312 189.550781 234.597656 189.070312 232.441406 186.554688 C 232.441406 186.554688 224.652344 178.652344 209.070312 162.726562 Z M 209.070312 162.726562 " fill-opacity="1" fill-rule="evenodd"/><path fill="#002d4d" d="M 226.089844 157.097656 C 225.011719 154.464844 225.851562 151.589844 227.886719 149.792969 C 230.042969 147.996094 233.042969 147.757812 235.4375 149.195312 C 235.4375 149.195312 243.707031 157.457031 260.128906 173.863281 C 261.566406 176.855469 260.609375 180.328125 257.851562 182.125 C 255.214844 183.921875 251.621094 183.441406 249.460938 180.929688 C 249.460938 180.929688 241.671875 173.023438 226.089844 157.097656 Z M 226.089844 157.097656 " fill-opacity="1" fill-rule="evenodd"/><path fill="#002d4d" d="M 89.808594 141.652344 C 101.316406 141.652344 110.785156 150.992188 110.785156 162.605469 C 110.785156 174.222656 101.316406 183.5625 89.808594 183.5625 C 78.183594 183.5625 68.714844 174.222656 68.714844 162.605469 C 68.714844 150.992188 78.183594 141.652344 89.808594 141.652344 Z M 89.808594 151.46875 C 95.921875 151.46875 100.835938 156.5 100.835938 162.605469 C 100.835938 168.714844 95.921875 173.742188 89.808594 173.742188 C 83.578125 173.742188 78.664062 168.714844 78.664062 162.605469 C 78.664062 156.5 83.578125 151.46875 89.808594 151.46875 Z M 89.808594 151.46875 " fill-opacity="1" fill-rule="evenodd"/><path fill="#fcc04f" d="M 285.300781 141.652344 C 296.804688 141.652344 306.273438 150.992188 306.273438 162.605469 C 306.273438 174.222656 296.804688 183.5625 285.300781 183.5625 C 273.671875 183.5625 264.203125 174.222656 264.203125 162.605469 C 264.203125 150.992188 273.671875 141.652344 285.300781 141.652344 Z M 285.300781 151.46875 C 291.414062 151.46875 296.328125 156.5 296.328125 162.605469 C 296.328125 168.714844 291.414062 173.742188 285.300781 173.742188 C 279.066406 173.742188 274.152344 168.714844 274.152344 162.605469 C 274.152344 156.5 279.066406 151.46875 285.300781 151.46875 Z M 285.300781 151.46875 " fill-opacity="1" fill-rule="evenodd"/><g transform="matrix(1, 0, 0, 1, 42, 214)"><g clip-path="url(#58264b3ba7)"><g fill="#002d4d" fill-opacity="1"><g transform="translate(1.702179, 22.872471)"><g><path d="M 16.199219 -6.933594 C 15.484375 -5.707031 14.375 -3.796875 11.625 -3.796875 C 8.789062 -3.796875 6.425781 -6.097656 6.425781 -10.730469 C 6.425781 -14.257812 8.21875 -17.425781 11.625 -17.425781 C 13.777344 -17.425781 15.660156 -15.78125 16.109375 -14.199219 L 20.292969 -16.289062 C 18.800781 -19.457031 15.273438 -21.757812 11.386719 -21.757812 C 5.410156 -21.757812 1.164062 -16.828125 1.164062 -10.582031 C 1.164062 -3.4375 5.679688 0.628906 11.269531 0.628906 C 15.660156 0.628906 18.679688 -1.882812 20.355469 -4.8125 Z M 16.199219 -6.933594 "/></g></g></g><g fill="#002d4d" fill-opacity="1"><g transform="translate(21.455166, 22.872471)"><g><path d="M 21.070312 0 L 13.300781 -21.101562 L 7.800781 -21.101562 L -0.03125 0 L 5.589844 0 L 6.636719 -3.378906 L 14.40625 -3.378906 L 15.453125 0 Z M 13.210938 -7.171875 L 7.859375 -7.171875 L 10.460938 -16.082031 Z M 13.210938 -7.171875 "/></g></g></g><g fill="#002d4d" fill-opacity="1"><g transform="translate(42.612903, 22.872471)"><g><path d="M 2.003906 -21.101562 L 2.003906 0 L 7.324219 0 L 7.324219 -7.53125 L 10.609375 -7.53125 L 14.824219 0 L 20.625 0 L 15.75 -8.429688 C 18.054688 -9.234375 20.085938 -10.671875 20.085938 -14.257812 C 20.085938 -20.292969 15.125 -21.101562 11.984375 -21.101562 Z M 7.292969 -17.1875 L 11.6875 -17.1875 C 12.613281 -17.1875 14.824219 -17.125 14.824219 -14.375 C 14.824219 -13.71875 14.675781 -11.449219 11.65625 -11.449219 L 7.292969 -11.449219 Z M 7.292969 -17.1875 "/></g></g></g><g fill="#002d4d" fill-opacity="1"><g transform="translate(63.770641, 22.872471)"><g/></g></g><g fill="#002d4d" fill-opacity="1"><g transform="translate(72.496713, 22.872471)"><g><path d="M 19.785156 0 L 19.785156 -3.316406 L 19.007812 -3.316406 C 18.113281 -3.316406 17.1875 -3.46875 16.617188 -4.304688 C 17.875 -6.425781 18.113281 -6.964844 18.890625 -9.324219 L 15.152344 -10.699219 C 14.734375 -8.847656 14.617188 -8.609375 14.136719 -7.5625 L 12.972656 -9.207031 C 12.402344 -10.042969 11.835938 -10.851562 11.269531 -11.746094 C 14.796875 -13.210938 15.214844 -15.601562 15.214844 -16.648438 C 15.214844 -20.085938 12.253906 -21.222656 10.074219 -21.222656 C 7.949219 -21.222656 4.664062 -20.234375 4.664062 -16.589844 C 4.664062 -15.273438 5.378906 -14.046875 6.039062 -12.972656 C 3.558594 -11.925781 0.867188 -10.011719 0.867188 -6.335938 C 0.867188 -1.851562 4.601562 0.210938 8.101562 0.210938 C 10.132812 0.210938 11.957031 -0.328125 13.71875 -1.40625 C 14.796875 -0.179688 15.960938 0 17.277344 0 Z M 11.449219 -16.738281 C 11.449219 -15.75 10.402344 -14.972656 9.503906 -14.496094 C 8.847656 -15.601562 8.488281 -16.082031 8.488281 -16.769531 C 8.488281 -17.605469 9.234375 -18.023438 9.984375 -18.023438 C 10.761719 -18.023438 11.449219 -17.605469 11.449219 -16.738281 Z M 11.539062 -4.332031 C 10.582031 -3.796875 9.683594 -3.347656 8.578125 -3.347656 C 6.246094 -3.347656 5.441406 -5.351562 5.441406 -6.484375 C 5.441406 -7.742188 6.1875 -8.757812 7.171875 -9.414062 L 7.890625 -9.894531 Z M 11.539062 -4.332031 "/></g></g></g><g fill="#002d4d" fill-opacity="1"><g transform="translate(93.056775, 22.872471)"><g/></g></g><g fill="#002d4d" fill-opacity="1"><g transform="translate(101.782848, 22.872471)"><g><path d="M 25.347656 0 L 25.347656 -21.101562 L 17.632812 -21.101562 L 13.71875 -6.335938 L 9.742188 -21.101562 L 2.03125 -21.101562 L 2.03125 0 L 7.171875 0 C 7.171875 0 7.144531 -12.824219 7.054688 -15.78125 L 11.417969 0 L 15.992188 0 L 20.382812 -15.78125 C 20.265625 -11.65625 20.265625 0 20.265625 0 Z M 25.347656 0 "/></g></g></g><g fill="#002d4d" fill-opacity="1"><g transform="translate(129.81397, 22.872471)"><g><path d="M 1.253906 -10.640625 C 1.253906 -4.84375 4.78125 0.628906 11.746094 0.628906 C 18.53125 0.628906 22.386719 -4.753906 22.386719 -10.402344 C 22.386719 -15.421875 19.367188 -21.757812 11.6875 -21.757812 C 4.066406 -21.757812 1.253906 -15.453125 1.253906 -10.640625 Z M 6.457031 -10.699219 C 6.457031 -13.539062 7.679688 -17.335938 11.6875 -17.335938 C 15.421875 -17.335938 17.097656 -14.285156 17.097656 -10.460938 C 17.097656 -7.503906 15.691406 -3.855469 11.777344 -3.855469 C 7.980469 -3.855469 6.457031 -7.324219 6.457031 -10.699219 Z M 6.457031 -10.699219 "/></g></g></g><g fill="#002d4d" fill-opacity="1"><g transform="translate(152.88417, 22.872471)"><g><path d="M 16.5 -16.945312 L 16.5 -21.101562 L 0.210938 -21.101562 L 0.210938 -16.945312 L 5.707031 -16.945312 L 5.707031 0 L 11.027344 0 L 11.027344 -16.945312 Z M 16.5 -16.945312 "/></g></g></g><g fill="#002d4d" fill-opacity="1"><g transform="translate(169.081103, 22.872471)"><g><path d="M 1.253906 -10.640625 C 1.253906 -4.84375 4.78125 0.628906 11.746094 0.628906 C 18.53125 0.628906 22.386719 -4.753906 22.386719 -10.402344 C 22.386719 -15.421875 19.367188 -21.757812 11.6875 -21.757812 C 4.066406 -21.757812 1.253906 -15.453125 1.253906 -10.640625 Z M 6.457031 -10.699219 C 6.457031 -13.539062 7.679688 -17.335938 11.6875 -17.335938 C 15.421875 -17.335938 17.097656 -14.285156 17.097656 -10.460938 C 17.097656 -7.503906 15.691406 -3.855469 11.777344 -3.855469 C 7.980469 -3.855469 6.457031 -7.324219 6.457031 -10.699219 Z M 6.457031 -10.699219 "/></g></g></g><g fill="#002d4d" fill-opacity="1"><g transform="translate(192.749081, 22.872471)"><g><path d="M 2.003906 -21.101562 L 2.003906 0 L 7.324219 0 L 7.324219 -7.53125 L 10.609375 -7.53125 L 14.824219 0 L 20.625 0 L 15.75 -8.429688 C 18.054688 -9.234375 20.085938 -10.671875 20.085938 -14.257812 C 20.085938 -20.292969 15.125 -21.101562 11.984375 -21.101562 Z M 7.292969 -17.1875 L 11.6875 -17.1875 C 12.613281 -17.1875 14.824219 -17.125 14.824219 -14.375 C 14.824219 -13.71875 14.675781 -11.449219 11.65625 -11.449219 L 7.292969 -11.449219 Z M 7.292969 -17.1875 "/></g></g></g><g fill="#002d4d" fill-opacity="1"><g transform="translate(215.162161, 22.872471)"><g><path d="M 2.03125 0 L 12.375 0 C 16.679688 0 20.144531 -2.03125 20.144531 -5.917969 C 20.144531 -9.625 16.855469 -10.671875 14.824219 -10.851562 C 16.109375 -11 19.339844 -12.015625 19.339844 -15.570312 C 19.339844 -18.652344 17.425781 -21.101562 11.867188 -21.101562 L 2.03125 -21.101562 Z M 7.054688 -12.761719 L 7.054688 -17.15625 L 11.386719 -17.15625 C 12.402344 -17.15625 14.167969 -17.066406 14.167969 -15.035156 C 14.167969 -12.851562 12.164062 -12.761719 11.027344 -12.761719 Z M 7.054688 -3.824219 L 7.054688 -8.9375 L 11.597656 -8.9375 C 12.671875 -8.9375 14.796875 -8.878906 14.796875 -6.335938 C 14.796875 -3.914062 12.433594 -3.824219 10.730469 -3.824219 Z M 7.054688 -3.824219 "/></g></g></g><g fill="#002d4d" fill-opacity="1"><g transform="translate(237.575242, 22.872471)"><g><path d="M 7.261719 0 L 7.261719 -21.101562 L 2.003906 -21.101562 L 2.003906 0 Z M 7.261719 0 "/></g></g></g><g fill="#002d4d" fill-opacity="1"><g transform="translate(248.184221, 22.872471)"><g><path d="M 21.878906 0 L 13.839844 -13.269531 L 21.3125 -21.101562 L 14.945312 -21.101562 L 7.054688 -12.492188 L 7.054688 -21.101562 L 2.03125 -21.101562 L 2.03125 0 L 7.054688 0 L 7.054688 -6.1875 L 10.3125 -9.566406 L 15.929688 0 Z M 21.878906 0 "/></g></g></g><g fill="#002d4d" fill-opacity="1"><g transform="translate(269.969608, 22.872471)"><g><path d="M 2.03125 0 L 18.5625 0 L 18.5625 -4.15625 L 7.292969 -4.15625 L 7.292969 -9.175781 L 16.945312 -9.175781 L 16.945312 -13.179688 L 7.292969 -13.179688 L 7.292969 -17.007812 L 17.632812 -17.007812 L 17.632812 -21.101562 L 2.03125 -21.101562 Z M 2.03125 0 "/></g></g></g></g></g><g transform="matrix(1, 0, 0, 1, 145, 245)"><g clip-path="url(#1f7c53af94)"><g fill="#fcc04f" fill-opacity="1"><g transform="translate(0.392658, 21.749628)"><g><path d="M 2.84375 0.15625 C 2.550781 0.15625 2.328125 0.0703125 2.171875 -0.09375 C 2.015625 -0.269531 1.9375 -0.503906 1.9375 -0.796875 L 1.9375 -14.734375 C 1.9375 -15.046875 2.015625 -15.28125 2.171875 -15.4375 C 2.335938 -15.59375 2.566406 -15.671875 2.859375 -15.671875 L 8.125 -15.671875 C 9.800781 -15.671875 11.09375 -15.273438 12 -14.484375 C 12.90625 -13.703125 13.359375 -12.582031 13.359375 -11.125 C 13.359375 -10.207031 13.148438 -9.410156 12.734375 -8.734375 C 12.328125 -8.066406 11.734375 -7.554688 10.953125 -7.203125 C 10.171875 -6.859375 9.226562 -6.6875 8.125 -6.6875 L 8.359375 -6.984375 L 8.796875 -6.984375 C 9.378906 -6.984375 9.882812 -6.832031 10.3125 -6.53125 C 10.738281 -6.238281 11.128906 -5.765625 11.484375 -5.109375 L 13.625 -1.140625 C 13.738281 -0.929688 13.789062 -0.722656 13.78125 -0.515625 C 13.78125 -0.316406 13.710938 -0.15625 13.578125 -0.03125 C 13.441406 0.09375 13.25 0.15625 13 0.15625 C 12.75 0.15625 12.539062 0.0976562 12.375 -0.015625 C 12.207031 -0.140625 12.066406 -0.3125 11.953125 -0.53125 L 9.53125 -5.015625 C 9.1875 -5.660156 8.789062 -6.085938 8.34375 -6.296875 C 7.90625 -6.515625 7.320312 -6.625 6.59375 -6.625 L 3.75 -6.625 L 3.75 -0.796875 C 3.75 -0.503906 3.675781 -0.269531 3.53125 -0.09375 C 3.382812 0.0703125 3.15625 0.15625 2.84375 0.15625 Z M 3.75 -8.0625 L 7.859375 -8.0625 C 9.078125 -8.0625 9.992188 -8.316406 10.609375 -8.828125 C 11.234375 -9.335938 11.546875 -10.101562 11.546875 -11.125 C 11.546875 -12.125 11.234375 -12.878906 10.609375 -13.390625 C 9.992188 -13.898438 9.078125 -14.15625 7.859375 -14.15625 L 3.75 -14.15625 Z M 3.75 -8.0625 "/></g></g></g><g fill="#fcc04f" fill-opacity="1"><g transform="translate(15.256339, 21.749628)"><g><path d="M 2.9375 0 C 2.601562 0 2.351562 -0.0820312 2.1875 -0.25 C 2.019531 -0.425781 1.9375 -0.675781 1.9375 -1 L 1.9375 -14.671875 C 1.9375 -14.992188 2.019531 -15.238281 2.1875 -15.40625 C 2.351562 -15.582031 2.601562 -15.671875 2.9375 -15.671875 L 11.203125 -15.671875 C 11.453125 -15.671875 11.640625 -15.601562 11.765625 -15.46875 C 11.898438 -15.332031 11.96875 -15.144531 11.96875 -14.90625 C 11.96875 -14.65625 11.898438 -14.460938 11.765625 -14.328125 C 11.640625 -14.191406 11.453125 -14.125 11.203125 -14.125 L 3.703125 -14.125 L 3.703125 -8.703125 L 10.734375 -8.703125 C 10.984375 -8.703125 11.175781 -8.640625 11.3125 -8.515625 C 11.445312 -8.390625 11.515625 -8.203125 11.515625 -7.953125 C 11.515625 -7.703125 11.445312 -7.507812 11.3125 -7.375 C 11.175781 -7.238281 10.984375 -7.171875 10.734375 -7.171875 L 3.703125 -7.171875 L 3.703125 -1.53125 L 11.203125 -1.53125 C 11.453125 -1.53125 11.640625 -1.460938 11.765625 -1.328125 C 11.898438 -1.203125 11.96875 -1.019531 11.96875 -0.78125 C 11.96875 -0.53125 11.898438 -0.335938 11.765625 -0.203125 C 11.640625 -0.0664062 11.453125 0 11.203125 0 Z M 2.9375 0 "/></g></g></g><g fill="#fcc04f" fill-opacity="1"><g transform="translate(28.209295, 21.749628)"><g><path d="M 2.796875 0.15625 C 2.515625 0.15625 2.300781 0.078125 2.15625 -0.078125 C 2.007812 -0.234375 1.9375 -0.457031 1.9375 -0.75 L 1.9375 -14.890625 C 1.9375 -15.179688 2.007812 -15.40625 2.15625 -15.5625 C 2.300781 -15.726562 2.492188 -15.8125 2.734375 -15.8125 C 2.972656 -15.8125 3.144531 -15.769531 3.25 -15.6875 C 3.363281 -15.613281 3.492188 -15.472656 3.640625 -15.265625 L 13.328125 -2.359375 L 12.796875 -2.359375 L 12.796875 -14.9375 C 12.796875 -15.21875 12.867188 -15.429688 13.015625 -15.578125 C 13.171875 -15.734375 13.390625 -15.8125 13.671875 -15.8125 C 13.929688 -15.8125 14.128906 -15.734375 14.265625 -15.578125 C 14.410156 -15.429688 14.484375 -15.21875 14.484375 -14.9375 L 14.484375 -0.734375 C 14.484375 -0.453125 14.421875 -0.234375 14.296875 -0.078125 C 14.171875 0.078125 13.988281 0.15625 13.75 0.15625 C 13.53125 0.15625 13.351562 0.109375 13.21875 0.015625 C 13.082031 -0.0664062 12.941406 -0.207031 12.796875 -0.40625 L 3.140625 -13.3125 L 3.640625 -13.3125 L 3.640625 -0.75 C 3.640625 -0.457031 3.566406 -0.234375 3.421875 -0.078125 C 3.273438 0.078125 3.066406 0.15625 2.796875 0.15625 Z M 2.796875 0.15625 "/></g></g></g><g fill="#fcc04f" fill-opacity="1"><g transform="translate(44.650427, 21.749628)"><g><path d="M 6.6875 0.15625 C 6.40625 0.15625 6.179688 0.0703125 6.015625 -0.09375 C 5.859375 -0.269531 5.78125 -0.503906 5.78125 -0.796875 L 5.78125 -14.09375 L 0.78125 -14.09375 C 0.507812 -14.09375 0.300781 -14.164062 0.15625 -14.3125 C 0.0078125 -14.457031 -0.0625 -14.648438 -0.0625 -14.890625 C -0.0625 -15.140625 0.0078125 -15.332031 0.15625 -15.46875 C 0.300781 -15.601562 0.507812 -15.671875 0.78125 -15.671875 L 12.625 -15.671875 C 12.882812 -15.671875 13.085938 -15.601562 13.234375 -15.46875 C 13.390625 -15.332031 13.46875 -15.140625 13.46875 -14.890625 C 13.46875 -14.640625 13.390625 -14.441406 13.234375 -14.296875 C 13.085938 -14.160156 12.882812 -14.09375 12.625 -14.09375 L 7.625 -14.09375 L 7.625 -0.796875 C 7.625 -0.503906 7.546875 -0.269531 7.390625 -0.09375 C 7.234375 0.0703125 7 0.15625 6.6875 0.15625 Z M 6.6875 0.15625 "/></g></g></g><g fill="#fcc04f" fill-opacity="1"><g transform="translate(56.336516, 21.749628)"><g><path d="M 1.59375 0.15625 C 1.363281 0.15625 1.175781 0.101562 1.03125 0 C 0.894531 -0.113281 0.8125 -0.265625 0.78125 -0.453125 C 0.757812 -0.640625 0.800781 -0.851562 0.90625 -1.09375 L 7.015625 -15 C 7.148438 -15.289062 7.3125 -15.5 7.5 -15.625 C 7.6875 -15.75 7.890625 -15.8125 8.109375 -15.8125 C 8.328125 -15.8125 8.53125 -15.75 8.71875 -15.625 C 8.90625 -15.5 9.054688 -15.289062 9.171875 -15 L 15.3125 -1.09375 C 15.425781 -0.851562 15.472656 -0.632812 15.453125 -0.4375 C 15.429688 -0.25 15.351562 -0.101562 15.21875 0 C 15.082031 0.101562 14.898438 0.15625 14.671875 0.15625 C 14.398438 0.15625 14.179688 0.0859375 14.015625 -0.046875 C 13.859375 -0.191406 13.726562 -0.398438 13.625 -0.671875 L 11.96875 -4.46875 L 12.859375 -4 L 3.3125 -4 L 4.21875 -4.46875 L 2.59375 -0.671875 C 2.46875 -0.390625 2.328125 -0.179688 2.171875 -0.046875 C 2.023438 0.0859375 1.832031 0.15625 1.59375 0.15625 Z M 8.09375 -13.53125 L 4.515625 -5.109375 L 3.984375 -5.53125 L 12.203125 -5.53125 L 11.703125 -5.109375 L 8.125 -13.53125 Z M 8.09375 -13.53125 "/></g></g></g><g fill="#fcc04f" fill-opacity="1"><g transform="translate(72.533261, 21.749628)"><g><path d="M 2.859375 0 C 2.566406 0 2.335938 -0.0820312 2.171875 -0.25 C 2.015625 -0.425781 1.9375 -0.660156 1.9375 -0.953125 L 1.9375 -14.8125 C 1.9375 -15.125 2.015625 -15.363281 2.171875 -15.53125 C 2.328125 -15.695312 2.550781 -15.78125 2.84375 -15.78125 C 3.132812 -15.78125 3.359375 -15.695312 3.515625 -15.53125 C 3.671875 -15.363281 3.75 -15.125 3.75 -14.8125 L 3.75 -1.59375 L 11.046875 -1.59375 C 11.304688 -1.59375 11.507812 -1.519531 11.65625 -1.375 C 11.8125 -1.238281 11.890625 -1.046875 11.890625 -0.796875 C 11.890625 -0.546875 11.8125 -0.347656 11.65625 -0.203125 C 11.507812 -0.0664062 11.304688 0 11.046875 0 Z M 2.859375 0 "/></g></g></g></g></g></svg>