<svg xmlns="http://www.w3.org/2000/svg" xmlns:xlink="http://www.w3.org/1999/xlink" width="500" zoomAndPan="magnify" viewBox="0 0 375 374.999991" height="500" preserveAspectRatio="xMidYMid meet" version="1.0"><defs><g/><clipPath id="96525df0e9"><path d="M 172 92 L 235 92 L 235 147 L 172 147 Z M 172 92 " clip-rule="nonzero"/></clipPath><clipPath id="fce0f38e9d"><path d="M 192.972656 263.488281 L 87.636719 186.453125 L 181.941406 57.507812 L 287.277344 134.546875 Z M 192.972656 263.488281 " clip-rule="nonzero"/></clipPath><clipPath id="03f4f70ca1"><path d="M 192.972656 263.488281 L 87.636719 186.453125 L 181.941406 57.507812 L 287.277344 134.546875 Z M 192.972656 263.488281 " clip-rule="nonzero"/></clipPath><clipPath id="052402b519"><path d="M 151 161 L 240 161 L 240 206 L 151 206 Z M 151 161 " clip-rule="nonzero"/></clipPath><clipPath id="769b2ea7f6"><path d="M 192.972656 263.488281 L 87.636719 186.453125 L 181.941406 57.507812 L 287.277344 134.546875 Z M 192.972656 263.488281 " clip-rule="nonzero"/></clipPath><clipPath id="42c0b43a1e"><path d="M 192.972656 263.488281 L 87.636719 186.453125 L 181.941406 57.507812 L 287.277344 134.546875 Z M 192.972656 263.488281 " clip-rule="nonzero"/></clipPath><clipPath id="524a81d0cf"><path d="M 100 148 L 157 148 L 157 212 L 100 212 Z M 100 148 " clip-rule="nonzero"/></clipPath><clipPath id="189a30a625"><path d="M 192.972656 263.488281 L 87.636719 186.453125 L 181.941406 57.507812 L 287.277344 134.546875 Z M 192.972656 263.488281 " clip-rule="nonzero"/></clipPath><clipPath id="0b6a0562e1"><path d="M 192.972656 263.488281 L 87.636719 186.453125 L 181.941406 57.507812 L 287.277344 134.546875 Z M 192.972656 263.488281 " clip-rule="nonzero"/></clipPath><clipPath id="b8afbea467"><path d="M 133 122 L 187 122 L 187 175 L 133 175 Z M 133 122 " clip-rule="nonzero"/></clipPath><clipPath id="9039d1d53a"><path d="M 192.972656 263.488281 L 87.636719 186.453125 L 181.941406 57.507812 L 287.277344 134.546875 Z M 192.972656 263.488281 " clip-rule="nonzero"/></clipPath><clipPath id="7a99db7f8f"><path d="M 192.972656 263.488281 L 87.636719 186.453125 L 181.941406 57.507812 L 287.277344 134.546875 Z M 192.972656 263.488281 " clip-rule="nonzero"/></clipPath><clipPath id="f0038054f0"><path d="M 186 159 L 245 159 L 245 208 L 186 208 Z M 186 159 " clip-rule="nonzero"/></clipPath><clipPath id="9408282bee"><path d="M 187.078125 159.277344 L 244.046875 159.71875 L 243.675781 207.628906 L 186.707031 207.1875 Z M 187.078125 159.277344 " clip-rule="nonzero"/></clipPath><clipPath id="c2b54fe231"><path d="M 0.480469 0.121094 L 58 0.121094 L 58 48.839844 L 0.480469 48.839844 Z M 0.480469 0.121094 " clip-rule="nonzero"/></clipPath><clipPath id="f11090cc62"><path d="M 1.078125 0.277344 L 58.046875 0.71875 L 57.675781 48.628906 L 0.707031 48.1875 Z M 1.078125 0.277344 " clip-rule="nonzero"/></clipPath><clipPath id="d8a8a8d3b7"><rect x="0" width="59" y="0" height="49"/></clipPath><clipPath id="d1ceb23848"><path d="M 190 161 L 271 161 L 271 206 L 190 206 Z M 190 161 " clip-rule="nonzero"/></clipPath><clipPath id="b1699b4a73"><path d="M 190.902344 161.484375 L 271.152344 161.867188 L 270.917969 210.617188 L 190.671875 210.234375 Z M 190.902344 161.484375 " clip-rule="nonzero"/></clipPath><clipPath id="01ea32b7e6"><path d="M 130.21875 161.195312 L 271.214844 161.867188 L 270.984375 210.617188 L 129.984375 209.941406 Z M 130.21875 161.195312 " clip-rule="nonzero"/></clipPath><clipPath id="498fa2adc9"><path d="M 130.382812 161.195312 L 270.726562 161.867188 L 270.515625 205.421875 L 130.171875 204.75 Z M 130.382812 161.195312 " clip-rule="nonzero"/></clipPath><clipPath id="5c94edbc98"><path d="M 232 190 L 253 190 L 253 211 L 232 211 Z M 232 190 " clip-rule="nonzero"/></clipPath><clipPath id="053e0c1935"><path d="M 190.902344 161.484375 L 271.152344 161.867188 L 270.917969 210.617188 L 190.671875 210.234375 Z M 190.902344 161.484375 " clip-rule="nonzero"/></clipPath><clipPath id="c93373dcb9"><path d="M 130.21875 161.195312 L 271.214844 161.867188 L 270.984375 210.617188 L 129.984375 209.941406 Z M 130.21875 161.195312 " clip-rule="nonzero"/></clipPath><clipPath id="d728036184"><rect x="0" width="117" y="0" height="85"/></clipPath><clipPath id="53a1fa377b"><rect x="0" width="139" y="0" height="85"/></clipPath></defs><rect x="-37.5" width="450" fill="#ffffff" y="-37.499999" height="449.999989" fill-opacity="1"/><rect x="-37.5" width="450" fill="#1b2216" y="-37.499999" height="449.999989" fill-opacity="1"/><g clip-path="url(#96525df0e9)"><g clip-path="url(#fce0f38e9d)"><g clip-path="url(#03f4f70ca1)"><path fill="#cecf9d" d="M 183.804688 133.222656 C 186.578125 137.296875 188.066406 141.867188 188.363281 146.457031 L 198.546875 139.523438 L 200.664062 128.378906 L 209.3125 129.886719 L 211.558594 120.96875 L 220.367188 122.367188 L 221.757812 112.871094 L 231.152344 114.792969 L 234.949219 96.273438 L 228.683594 94.761719 L 189.476562 121.445312 L 187.324219 118.285156 L 223.671875 93.550781 L 218.910156 92.398438 L 172.640625 123.890625 C 177.011719 125.832031 180.914062 128.976562 183.804688 133.222656 Z M 183.804688 133.222656 " fill-opacity="1" fill-rule="nonzero"/></g></g></g><g clip-path="url(#052402b519)"><g clip-path="url(#769b2ea7f6)"><g clip-path="url(#42c0b43a1e)"><path fill="#cecf9d" d="M 174.890625 161.316406 C 172.871094 161.289062 170.914062 162.011719 169.394531 163.347656 L 163.246094 168.726562 L 162.425781 169.445312 L 161.597656 170.167969 L 156.519531 174.617188 L 155.636719 175.390625 L 155.171875 175.792969 L 154.75 176.167969 L 153.933594 176.878906 C 152.238281 178.355469 151.25 180.40625 151.140625 182.65625 C 151.035156 184.847656 151.785156 186.933594 153.257812 188.554688 C 153.292969 188.59375 153.332031 188.636719 153.371094 188.675781 L 154.015625 189.355469 L 154.761719 190.148438 L 159.179688 194.820312 L 159.902344 195.585938 L 160.628906 196.347656 L 166.234375 202.28125 C 166.574219 202.640625 166.949219 202.972656 167.347656 203.265625 C 168.753906 204.292969 170.410156 204.835938 172.140625 204.84375 L 228.554688 205.179688 C 234.21875 205.210938 238.820312 200.800781 239.03125 195.140625 L 239.867188 172.820312 C 240 169.351562 238.402344 166.054688 235.597656 164.003906 C 233.84375 162.71875 231.761719 162.027344 229.578125 162.003906 L 183.589844 161.429688 Z M 163.164062 187.328125 C 162.898438 187.59375 162.59375 187.839844 162.261719 188.042969 C 162.132812 188.121094 162.011719 188.191406 161.882812 188.257812 C 159.863281 189.285156 157.40625 188.808594 155.902344 187.152344 C 155.699219 186.933594 155.519531 186.6875 155.355469 186.425781 C 155.289062 186.3125 155.222656 186.199219 155.164062 186.082031 C 154.820312 185.421875 154.636719 184.710938 154.609375 184.003906 C 154.578125 183.363281 154.675781 182.726562 154.886719 182.125 C 154.886719 182.121094 154.886719 182.121094 154.886719 182.117188 C 155.125 181.445312 155.503906 180.824219 156.007812 180.296875 C 156.292969 180.003906 156.613281 179.742188 156.976562 179.519531 C 156.992188 179.511719 157.011719 179.5 157.027344 179.492188 C 159 178.296875 161.46875 178.621094 163.070312 180.140625 C 163.375 180.429688 163.648438 180.765625 163.882812 181.136719 C 163.933594 181.222656 163.984375 181.308594 164.03125 181.402344 C 164.542969 182.335938 164.71875 183.378906 164.601562 184.375 C 164.46875 185.476562 163.972656 186.523438 163.164062 187.328125 Z M 163.164062 187.328125 " fill-opacity="1" fill-rule="nonzero"/></g></g></g><g clip-path="url(#524a81d0cf)"><g clip-path="url(#189a30a625)"><g clip-path="url(#0b6a0562e1)"><path fill="#cecf9d" d="M 113.09375 205.023438 C 127.046875 215.230469 146.6875 212.214844 156.941406 198.316406 L 152.703125 193.835938 C 152.519531 194.105469 152.335938 194.375 152.140625 194.640625 C 143.875 205.9375 127.960938 208.40625 116.664062 200.144531 C 105.363281 191.878906 102.894531 175.964844 111.15625 164.667969 C 116.039062 157.988281 123.601562 154.390625 131.292969 154.28125 L 130.90625 148.246094 C 121.484375 148.476562 112.257812 152.917969 106.277344 161.097656 C 96.042969 175.085938 99.101562 194.792969 113.09375 205.023438 Z M 113.09375 205.023438 " fill-opacity="1" fill-rule="nonzero"/></g></g></g><g clip-path="url(#b8afbea467)"><g clip-path="url(#9039d1d53a)"><g clip-path="url(#7a99db7f8f)"><path fill="#cecf9d" d="M 133.253906 147.261719 C 133.234375 147.523438 133.210938 147.789062 133.195312 148.050781 C 133.195312 148.125 133.1875 148.195312 133.183594 148.265625 C 133.085938 150.21875 133.203125 152.1875 133.542969 154.128906 C 133.550781 154.203125 133.566406 154.273438 133.578125 154.347656 C 133.640625 154.691406 133.707031 155.03125 133.78125 155.371094 C 133.859375 155.714844 133.945312 156.0625 134.035156 156.410156 C 134.785156 159.242188 136.023438 161.992188 137.765625 164.554688 C 141.007812 169.316406 145.523438 172.695312 150.542969 174.550781 C 150.777344 174.304688 151.023438 174.070312 151.28125 173.84375 L 153.644531 171.773438 L 154.457031 171.066406 L 155.265625 170.355469 L 160.039062 166.175781 L 160.828125 165.488281 L 161.613281 164.800781 L 166.738281 160.316406 C 169.007812 158.324219 171.925781 157.25 174.941406 157.289062 L 185.183594 157.417969 C 186.132812 154.332031 186.519531 151.085938 186.308594 147.851562 C 186.015625 143.265625 184.523438 138.695312 181.75 134.621094 C 178.863281 130.375 174.960938 127.226562 170.589844 125.285156 C 162.457031 121.667969 152.691406 122.21875 144.789062 127.59375 C 138.21875 132.066406 134.28125 138.957031 133.359375 146.265625 C 133.320312 146.59375 133.285156 146.929688 133.253906 147.261719 Z M 156.167969 152.03125 C 157.480469 153.960938 157.875 156.242188 157.453125 158.363281 C 157.371094 158.769531 157.261719 159.167969 157.117188 159.554688 C 156.988281 159.917969 156.835938 160.269531 156.65625 160.609375 C 156.039062 161.785156 155.136719 162.832031 153.960938 163.628906 C 153.367188 164.035156 152.734375 164.355469 152.085938 164.585938 C 151.746094 164.710938 151.398438 164.808594 151.046875 164.882812 C 150.671875 164.96875 150.285156 165.023438 149.902344 165.054688 C 147.019531 165.273438 144.105469 163.984375 142.367188 161.425781 C 141.695312 160.4375 141.261719 159.359375 141.058594 158.253906 C 140.988281 157.875 140.945312 157.488281 140.925781 157.105469 C 140.910156 156.742188 140.917969 156.386719 140.949219 156.027344 C 141.121094 153.992188 142.035156 152.027344 143.613281 150.582031 C 143.890625 150.324219 144.191406 150.089844 144.507812 149.867188 C 144.527344 149.851562 144.550781 149.835938 144.570312 149.824219 C 144.894531 149.601562 145.234375 149.40625 145.578125 149.238281 C 149.25 147.425781 153.792969 148.546875 156.167969 152.03125 Z M 156.167969 152.03125 " fill-opacity="1" fill-rule="nonzero"/></g></g></g><g clip-path="url(#f0038054f0)"><g clip-path="url(#9408282bee)"><g transform="matrix(1, 0, 0, 1, 186, 159)"><g clip-path="url(#d8a8a8d3b7)"><g clip-path="url(#c2b54fe231)"><g clip-path="url(#f11090cc62)"><path fill="#1b2216" d="M 1.078125 0.277344 L 57.96875 0.71875 L 57.597656 48.625 L 0.707031 48.1875 Z M 1.078125 0.277344 " fill-opacity="1" fill-rule="nonzero"/></g></g></g></g></g></g><g clip-path="url(#d1ceb23848)"><g clip-path="url(#b1699b4a73)"><g clip-path="url(#01ea32b7e6)"><g clip-path="url(#498fa2adc9)"><path fill="#ffffff" d="M 223.613281 178.304688 L 195.078125 178.167969 C 194.632812 178.164062 194.273438 177.804688 194.277344 177.359375 L 194.332031 165.988281 C 194.332031 165.535156 194.710938 165.171875 195.164062 165.1875 C 202.398438 165.460938 209.597656 166.871094 215.695312 171.011719 C 218.65625 173.023438 221.082031 175.636719 223.714844 178.03125 C 223.820312 178.128906 223.753906 178.304688 223.613281 178.304688 Z M 190.101562 177.339844 C 190.097656 177.785156 189.738281 178.140625 189.292969 178.140625 C 185.925781 178.125 182.996094 178.109375 179.554688 178.09375 C 176.800781 178.082031 174.042969 178.050781 171.296875 177.847656 C 168.730469 177.660156 165.949219 177.503906 163.625 176.285156 C 162.585938 175.742188 161.613281 174.617188 162.535156 173.511719 C 162.542969 173.5 162.550781 173.488281 162.5625 173.480469 C 169.515625 166.078125 179.804688 165.398438 189.332031 165.179688 C 189.785156 165.167969 190.15625 165.535156 190.15625 165.988281 Z M 270.535156 193.175781 C 270.503906 192.746094 270.148438 192.410156 269.71875 192.402344 C 269.347656 192.398438 269.046875 192.113281 269.046875 191.742188 L 269.050781 191.089844 C 269.0625 188.390625 268.246094 187.222656 268.070312 187.003906 C 268.039062 186.964844 268.011719 186.925781 267.988281 186.886719 C 264.378906 181.667969 235.28125 176.980469 231.1875 176.34375 C 230.871094 176.292969 230.566406 176.179688 230.296875 176.007812 C 226.359375 173.511719 222.554688 170.339844 218.714844 167.707031 C 215.191406 165.289062 210.5 163.484375 206.28125 162.730469 C 199.941406 161.597656 193.472656 161.390625 187.046875 161.515625 C 180.703125 161.636719 174.320312 161.652344 168.101562 163.058594 C 162.257812 164.378906 156.996094 167.507812 151.609375 170.078125 C 150.035156 170.828125 148.480469 171.609375 146.933594 172.414062 C 145.835938 172.984375 144.746094 173.566406 143.667969 174.171875 C 143.378906 174.335938 143.054688 174.417969 142.726562 174.417969 L 137.207031 174.390625 C 131.070312 174.363281 131.5625 185.792969 131.847656 189.214844 C 131.898438 189.820312 131.667969 190.414062 131.222656 190.828125 C 130.53125 191.460938 130.164062 192.375 130.238281 193.3125 C 131.160156 205.421875 143.773438 204.808594 145.449219 204.671875 C 144.851562 203.128906 144.554688 201.507812 144.5625 199.835938 C 144.570312 198.054688 144.925781 196.324219 145.625 194.695312 C 146.300781 193.125 147.257812 191.714844 148.480469 190.507812 C 149.699219 189.300781 151.117188 188.351562 152.695312 187.695312 C 154.328125 187.011719 156.0625 186.671875 157.847656 186.679688 C 159.628906 186.6875 161.359375 187.046875 162.988281 187.742188 C 164.558594 188.417969 165.96875 189.378906 167.175781 190.597656 C 168.382812 191.816406 169.332031 193.234375 169.988281 194.8125 C 170.671875 196.445312 171.011719 198.179688 171.003906 199.964844 C 170.996094 201.632812 170.683594 203.25 170.070312 204.785156 L 230.242188 205.113281 C 229.636719 203.5625 229.332031 201.925781 229.339844 200.242188 C 229.347656 198.460938 229.707031 196.730469 230.40625 195.101562 C 231.078125 193.53125 232.039062 192.121094 233.257812 190.914062 C 234.476562 189.703125 235.894531 188.757812 237.472656 188.097656 C 239.109375 187.417969 240.84375 187.074219 242.625 187.085938 C 244.410156 187.09375 246.140625 187.453125 247.769531 188.148438 C 249.339844 188.824219 250.75 189.78125 251.957031 191.003906 C 253.164062 192.222656 254.109375 193.640625 254.769531 195.214844 C 255.453125 196.851562 255.792969 198.585938 255.785156 200.371094 C 255.777344 202.054688 255.457031 203.695312 254.832031 205.246094 L 261.148438 205.28125 C 265.136719 205.300781 266.964844 203.527344 267.304688 203.15625 C 267.363281 203.089844 267.425781 203.027344 267.488281 202.960938 C 270.625 199.730469 270.65625 195.011719 270.535156 193.175781 " fill-opacity="1" fill-rule="nonzero"/></g></g></g></g><g clip-path="url(#5c94edbc98)"><g clip-path="url(#053e0c1935)"><g clip-path="url(#c93373dcb9)"><path fill="#ffffff" d="M 242.613281 190.164062 C 237.011719 190.140625 232.449219 194.65625 232.421875 200.257812 C 232.394531 205.847656 236.921875 210.417969 242.515625 210.445312 C 248.113281 210.472656 252.675781 205.953125 252.703125 200.355469 C 252.730469 194.761719 248.203125 190.191406 242.613281 190.164062 " fill-opacity="1" fill-rule="nonzero"/></g></g></g><g transform="matrix(1, 0, 0, 1, 63, 205)"><g clip-path="url(#d728036184)"><g fill="#ffffff" fill-opacity="1"><g transform="translate(0.479759, 63.202183)"><g><path d="M 4.5625 -45.65625 L 21.515625 -45.65625 L 21.515625 -31.3125 L 31.953125 -45.65625 L 50.21875 -45.65625 L 35.546875 -26.734375 L 51.515625 0 L 32.9375 0 L 24.453125 -14.671875 L 21.515625 -10.765625 L 21.515625 0 L 4.5625 0 Z M 4.5625 -45.65625 "/></g></g></g><g fill="#ffffff" fill-opacity="1"><g transform="translate(43.78217, 63.202183)"><g><path d="M 21.203125 0.984375 C 18.242188 0.984375 15.578125 0.550781 13.203125 -0.3125 C 10.835938 -1.1875 8.828125 -2.394531 7.171875 -3.9375 C 5.523438 -5.488281 4.242188 -7.296875 3.328125 -9.359375 C 2.410156 -11.421875 1.953125 -13.628906 1.953125 -15.984375 C 1.953125 -18.328125 2.394531 -20.53125 3.28125 -22.59375 C 4.175781 -24.664062 5.414062 -26.472656 7 -28.015625 C 8.59375 -29.554688 10.488281 -30.757812 12.6875 -31.625 C 14.882812 -32.5 17.285156 -32.9375 19.890625 -32.9375 C 22.585938 -32.9375 25.03125 -32.519531 27.21875 -31.6875 C 29.414062 -30.863281 31.296875 -29.734375 32.859375 -28.296875 C 34.429688 -26.867188 35.648438 -25.207031 36.515625 -23.3125 C 37.390625 -21.425781 37.828125 -19.414062 37.828125 -17.28125 C 37.828125 -16.625 37.789062 -16.023438 37.71875 -15.484375 C 37.65625 -14.941406 37.582031 -14.5 37.5 -14.15625 C 37.375 -13.71875 37.265625 -13.347656 37.171875 -13.046875 L 16.953125 -13.046875 C 17.128906 -12.429688 17.457031 -11.882812 17.9375 -11.40625 C 18.320312 -10.976562 18.90625 -10.597656 19.6875 -10.265625 C 20.476562 -9.941406 21.523438 -9.78125 22.828125 -9.78125 C 23.691406 -9.78125 24.503906 -9.878906 25.265625 -10.078125 C 26.023438 -10.273438 26.691406 -10.503906 27.265625 -10.765625 C 27.910156 -11.023438 28.492188 -11.347656 29.015625 -11.734375 L 33.90625 -2.609375 C 32.957031 -1.910156 31.851562 -1.300781 30.59375 -0.78125 C 29.5 -0.300781 28.171875 0.109375 26.609375 0.453125 C 25.046875 0.804688 23.242188 0.984375 21.203125 0.984375 Z M 23.15625 -18.59375 C 23.15625 -19.894531 22.816406 -20.867188 22.140625 -21.515625 C 21.460938 -22.171875 20.710938 -22.5 19.890625 -22.5 C 19.066406 -22.5 18.335938 -22.171875 17.703125 -21.515625 C 17.078125 -20.867188 16.71875 -19.894531 16.625 -18.59375 Z M 23.15625 -18.59375 "/></g></g></g><g fill="#ffffff" fill-opacity="1"><g transform="translate(77.628328, 63.202183)"><g><path d="M 10.4375 13.703125 C 9.300781 13.703125 8.253906 13.632812 7.296875 13.5 C 6.347656 13.363281 5.523438 13.210938 4.828125 13.046875 C 4.046875 12.867188 3.304688 12.648438 2.609375 12.390625 L 2.609375 -0.65625 C 2.867188 -0.519531 3.171875 -0.410156 3.515625 -0.328125 C 4.171875 -0.109375 4.957031 0 5.875 0 C 7.351562 0 8.394531 -0.226562 9 -0.6875 C 9.601562 -1.144531 10.082031 -1.785156 10.4375 -2.609375 L -0.65625 -31.953125 L 15 -31.953125 L 18.453125 -15 L 18.71875 -15 L 22.171875 -31.953125 L 37.828125 -31.953125 L 26.09375 0.65625 C 24.613281 4.738281 22.609375 7.929688 20.078125 10.234375 C 17.554688 12.546875 14.34375 13.703125 10.4375 13.703125 Z M 10.4375 13.703125 "/></g></g></g></g></g><g transform="matrix(1, 0, 0, 1, 173, 205)"><g clip-path="url(#53a1fa377b)"><g fill="#cecf9d" fill-opacity="1"><g transform="translate(1.424407, 62.19598)"><g><path d="M 4.5625 -45.671875 L 28.046875 -45.671875 C 30.828125 -45.671875 33.335938 -45.242188 35.578125 -44.390625 C 37.816406 -43.546875 39.726562 -42.382812 41.3125 -40.90625 C 42.90625 -39.425781 44.132812 -37.660156 45 -35.609375 C 45.875 -33.566406 46.3125 -31.375 46.3125 -29.03125 C 46.3125 -26.632812 45.929688 -24.597656 45.171875 -22.921875 C 44.410156 -21.253906 43.597656 -19.875 42.734375 -18.78125 C 41.640625 -17.519531 40.441406 -16.476562 39.140625 -15.65625 L 47.953125 0 L 30.328125 0 L 24.46875 -12.390625 L 21.53125 -12.390625 L 21.53125 0 L 4.5625 0 Z M 25.4375 -25.4375 C 26.75 -25.4375 27.726562 -25.785156 28.375 -26.484375 C 29.03125 -27.179688 29.359375 -28.03125 29.359375 -29.03125 C 29.359375 -30.03125 29.03125 -30.878906 28.375 -31.578125 C 27.726562 -32.273438 26.75 -32.625 25.4375 -32.625 L 21.53125 -32.625 L 21.53125 -25.4375 Z M 25.4375 -25.4375 "/></g></g></g><g fill="#cecf9d" fill-opacity="1"><g transform="translate(45.055898, 62.19598)"><g><path d="M 3.59375 -31.96875 L 18.59375 -31.96875 L 18.59375 0 L 3.59375 0 Z M 11.09375 -34.578125 C 9.875 -34.578125 8.765625 -34.757812 7.765625 -35.125 C 6.765625 -35.5 5.90625 -36.007812 5.1875 -36.65625 C 4.46875 -37.3125 3.910156 -38.070312 3.515625 -38.9375 C 3.128906 -39.8125 2.9375 -40.75 2.9375 -41.75 C 2.9375 -42.707031 3.128906 -43.617188 3.515625 -44.484375 C 3.910156 -45.359375 4.46875 -46.117188 5.1875 -46.765625 C 5.90625 -47.421875 6.765625 -47.941406 7.765625 -48.328125 C 8.765625 -48.722656 9.875 -48.921875 11.09375 -48.921875 C 12.3125 -48.921875 13.421875 -48.722656 14.421875 -48.328125 C 15.421875 -47.941406 16.273438 -47.421875 16.984375 -46.765625 C 17.703125 -46.117188 18.257812 -45.359375 18.65625 -44.484375 C 19.050781 -43.617188 19.25 -42.707031 19.25 -41.75 C 19.25 -40.75 19.050781 -39.8125 18.65625 -38.9375 C 18.257812 -38.070312 17.703125 -37.3125 16.984375 -36.65625 C 16.273438 -36.007812 15.421875 -35.5 14.421875 -35.125 C 13.421875 -34.757812 12.3125 -34.578125 11.09375 -34.578125 Z M 11.09375 -34.578125 "/></g></g></g><g fill="#cecf9d" fill-opacity="1"><g transform="translate(61.947097, 62.19598)"><g><path d="M 14.671875 0.65625 C 13.023438 0.65625 11.4375 0.273438 9.90625 -0.484375 C 8.382812 -1.242188 7.035156 -2.332031 5.859375 -3.75 C 4.691406 -5.164062 3.75 -6.90625 3.03125 -8.96875 C 2.3125 -11.03125 1.953125 -13.367188 1.953125 -15.984375 C 1.953125 -18.585938 2.3125 -20.921875 3.03125 -22.984375 C 3.75 -25.054688 4.691406 -26.796875 5.859375 -28.203125 C 7.035156 -29.617188 8.382812 -30.707031 9.90625 -31.46875 C 11.4375 -32.238281 13.023438 -32.625 14.671875 -32.625 C 16.328125 -32.625 17.71875 -32.347656 18.84375 -31.796875 C 19.976562 -31.253906 20.914062 -30.660156 21.65625 -30.015625 C 22.476562 -29.222656 23.195312 -28.351562 23.8125 -27.40625 L 24.140625 -27.40625 L 24.140625 -45.671875 L 39.140625 -45.671875 L 39.140625 0 L 24.140625 0 L 24.140625 -4.5625 L 23.8125 -4.5625 C 23.195312 -3.601562 22.476562 -2.734375 21.65625 -1.953125 C 20.914062 -1.304688 19.976562 -0.707031 18.84375 -0.15625 C 17.71875 0.382812 16.328125 0.65625 14.671875 0.65625 Z M 20.875 -12.390625 C 21.875 -12.390625 22.664062 -12.738281 23.25 -13.4375 C 23.84375 -14.132812 24.140625 -14.984375 24.140625 -15.984375 C 24.140625 -16.984375 23.84375 -17.832031 23.25 -18.53125 C 22.664062 -19.226562 21.875 -19.578125 20.875 -19.578125 C 19.875 -19.578125 19.078125 -19.226562 18.484375 -18.53125 C 17.898438 -17.832031 17.609375 -16.984375 17.609375 -15.984375 C 17.609375 -14.984375 17.898438 -14.132812 18.484375 -13.4375 C 19.078125 -12.738281 19.875 -12.390625 20.875 -12.390625 Z M 20.875 -12.390625 "/></g></g></g><g fill="#cecf9d" fill-opacity="1"><g transform="translate(99.382663, 62.19598)"><g><path d="M 21.203125 0.984375 C 18.242188 0.984375 15.578125 0.550781 13.203125 -0.3125 C 10.835938 -1.1875 8.828125 -2.394531 7.171875 -3.9375 C 5.523438 -5.488281 4.242188 -7.296875 3.328125 -9.359375 C 2.410156 -11.421875 1.953125 -13.628906 1.953125 -15.984375 C 1.953125 -18.328125 2.394531 -20.53125 3.28125 -22.59375 C 4.175781 -24.664062 5.414062 -26.472656 7 -28.015625 C 8.59375 -29.554688 10.488281 -30.757812 12.6875 -31.625 C 14.882812 -32.5 17.285156 -32.9375 19.890625 -32.9375 C 22.585938 -32.9375 25.035156 -32.523438 27.234375 -31.703125 C 29.429688 -30.878906 31.3125 -29.75 32.875 -28.3125 C 34.445312 -26.875 35.664062 -25.207031 36.53125 -23.3125 C 37.40625 -21.425781 37.84375 -19.414062 37.84375 -17.28125 C 37.84375 -16.632812 37.804688 -16.035156 37.734375 -15.484375 C 37.671875 -14.941406 37.597656 -14.5 37.515625 -14.15625 C 37.378906 -13.71875 37.269531 -13.347656 37.1875 -13.046875 L 16.96875 -13.046875 C 17.132812 -12.441406 17.457031 -11.898438 17.9375 -11.421875 C 18.332031 -10.984375 18.921875 -10.597656 19.703125 -10.265625 C 20.484375 -9.941406 21.523438 -9.78125 22.828125 -9.78125 C 23.703125 -9.78125 24.519531 -9.878906 25.28125 -10.078125 C 26.039062 -10.273438 26.703125 -10.503906 27.265625 -10.765625 C 27.921875 -11.023438 28.507812 -11.351562 29.03125 -11.75 L 33.921875 -2.609375 C 32.960938 -1.910156 31.851562 -1.300781 30.59375 -0.78125 C 29.507812 -0.300781 28.179688 0.109375 26.609375 0.453125 C 25.046875 0.804688 23.242188 0.984375 21.203125 0.984375 Z M 23.15625 -18.59375 C 23.15625 -19.894531 22.816406 -20.867188 22.140625 -21.515625 C 21.472656 -22.171875 20.722656 -22.5 19.890625 -22.5 C 19.066406 -22.5 18.335938 -22.171875 17.703125 -21.515625 C 17.078125 -20.867188 16.722656 -19.894531 16.640625 -18.59375 Z M 23.15625 -18.59375 "/></g></g></g></g></g></svg>